<?xml version="1.0" encoding="utf-8"?>
<svg id="master-artboard" viewBox="0 0 577.835205078125 101.98995208740234" version="1.1" xmlns="http://www.w3.org/2000/svg" x="0px" y="0px" style="enable-background:new 0 0 1400 980;" width="577.835205078125px" height="101.98995208740234px" xmlns:xlink="http://www.w3.org/1999/xlink"><rect id="ee-background" x="0" y="0" width="577.835205078125" height="101.98995208740234" style="fill: white; fill-opacity: 1; pointer-events: none;"/><defs><style id="ee-google-fonts">@import url(https://fonts.googleapis.com/css?family=Roboto:100,100italic,300,300italic,400,400italic,500,500italic,700,700italic,900,900italic);</style></defs>























































































































<g transform="matrix(1.2760417461395264, 0, 0, 1.2760417461395264, -364.37214946746826, -438.5704026222229)"><metadata id="metadata313086">
    
  </metadata><linearGradient spreadMethod="pad" y2="30%" x2="-10%" y1="120%" x1="30%" id="3d_gradient2-logo-42b5075d-5714-4813-8989-cc51c8c2356e">
    <stop id="stop313061" stop-opacity="1" stop-color="#ffffff" offset="0%"/>
    <stop id="stop313063" stop-opacity="1" stop-color="#000000" offset="100%"/>
  </linearGradient><linearGradient gradientTransform="rotate(-30)" spreadMethod="pad" y2="30%" x2="-10%" y1="120%" x1="30%" id="3d_gradient3-logo-42b5075d-5714-4813-8989-cc51c8c2356e">
    <stop id="stop313066" stop-opacity="1" stop-color="#ffffff" offset="0%"/>
    <stop id="stop313068" stop-opacity="1" stop-color="#cccccc" offset="50%"/>
    <stop id="stop313070" stop-opacity="1" stop-color="#000000" offset="100%"/>
  </linearGradient><g id="logo-group">
    <image id="container" x="272" y="144" width="480" height="480" style="display: none;" transform="translate(0 0)" xlink:href=""/>
    <g id="logo-center" transform="translate(5.684341886080802e-14 0)">
      <image id="icon_container" style="display: none;" x="0" y="0" xlink:href=""/>
      <g id="slogan" style="font-style:normal;font-weight:400;font-size:32px;line-height:1;font-family:Arvo;font-variant-ligatures:none;text-align:center;text-anchor:middle" transform="translate(0 0)"/>
      <g id="title" style="font-style:normal;font-weight:500;font-size:72px;line-height:1;font-family:'Raleway Medium Alt1';font-variant-ligatures:none;text-align:center;text-anchor:middle" transform="translate(0 0)">
        <path id="path313089" style="font-style:normal;font-weight:500;font-size:72px;line-height:1;font-family:'Raleway Medium Alt1';font-variant-ligatures:none;text-align:center;text-anchor:middle" d="m 377.99394,0.72 c 2.448,0 4.824,-0.504 6.984,-1.512 2.16,-1.008 4.104,-2.448 5.688,-4.176 1.584,-1.728 2.808,-3.816 3.744,-6.192 0.864,-2.304 1.368,-4.824 1.368,-7.488 0,-2.448 -0.432,-4.896 -1.224,-7.272 -0.792,-2.376 -1.944,-4.464 -3.384,-6.264 -1.44,-1.8 -3.24,-3.24 -5.256,-4.392 -2.088,-1.08 -4.392,-1.656 -6.984,-1.656 -3.096,0 -5.76,0.792 -8.064,2.232 -2.304,1.512 -4.248,3.456 -5.832,5.904 V -52.56 h -6.336 V 0 h 5.616 v -7.056 c 1.368,2.304 3.24,4.176 5.688,5.616 2.376,1.44 5.04,2.16 7.992,2.16 z m -1.584,-5.472 c -1.152,0 -2.376,-0.216 -3.6,-0.648 -1.224,-0.432 -2.376,-1.008 -3.456,-1.728 -1.08,-0.72 -2.016,-1.656 -2.808,-2.664 -0.792,-1.008 -1.296,-2.088 -1.512,-3.312 v -10.872 c 0.576,-1.152 1.224,-2.304 2.016,-3.384 0.792,-1.008 1.728,-1.944 2.736,-2.736 1.008,-0.792 2.16,-1.44 3.384,-1.944 1.152,-0.432 2.448,-0.72 3.816,-0.72 1.8,0 3.456,0.432 4.968,1.224 1.512,0.792 2.808,1.8 3.888,3.096 1.08,1.296 1.944,2.808 2.52,4.536 0.576,1.728 0.936,3.456 0.936,5.256 0,1.872 -0.36,3.6 -0.936,5.256 -0.648,1.656 -1.512,3.096 -2.664,4.392 -1.152,1.296 -2.52,2.376 -4.104,3.096 -1.584,0.792 -3.312,1.152 -5.184,1.152 z" stroke-width="0" stroke-linejoin="miter" stroke-miterlimit="2" fill="#2f4095" stroke="#2f4095" transform="translate(0 317.728) translate(287.26587499999994 28.976) scale(1.4) translate(-358.69794 52.56)"/>
        <path id="path313091" style="font-style:normal;font-weight:500;font-size:72px;line-height:1;font-family:'Raleway Medium Alt1';font-variant-ligatures:none;text-align:center;text-anchor:middle" d="m 413.20531,0.72 c 2.88,0 5.616,-0.576 8.208,-1.728 2.592,-1.152 4.68,-2.88 6.408,-5.184 l 0.144,2.664 c 0.144,1.08 0.576,2.016 1.296,2.736 0.72,0.72 1.728,1.08 3.024,1.08 0.432,0 0.936,0 1.368,-0.072 0.432,0 0.936,-0.072 1.656,-0.216 v -5.472 c -1.368,0 -2.016,-0.792 -2.016,-2.304 v -15.336 c 0,-4.752 -1.44,-8.496 -4.176,-11.16 -2.736,-2.592 -6.624,-3.96 -11.52,-3.96 -4.896,0 -9.792,1.656 -14.616,4.896 l 2.088,4.104 c 4.176,-2.88 8.136,-4.392 11.952,-4.392 3.168,0 5.616,0.936 7.344,2.664 1.728,1.728 2.592,4.176 2.592,7.2 v 3.024 c -1.44,-0.576 -3.096,-1.008 -4.968,-1.368 -1.872,-0.288 -3.744,-0.504 -5.544,-0.504 -2.304,0 -4.464,0.288 -6.408,0.864 -1.944,0.576 -3.6,1.368 -5.04,2.376 -1.44,1.008 -2.52,2.232 -3.24,3.672 -0.792,1.44 -1.152,2.952 -1.152,4.68 0,1.728 0.288,3.24 0.936,4.68 0.648,1.44 1.512,2.664 2.664,3.672 1.152,1.08 2.448,1.944 4.032,2.52 1.512,0.576 3.168,0.864 4.968,0.864 z m 1.656,-4.752 c -1.152,0 -2.232,-0.144 -3.24,-0.576 -1.008,-0.36 -1.944,-0.864 -2.664,-1.584 -0.72,-0.648 -1.296,-1.44 -1.728,-2.376 -0.432,-0.864 -0.576,-1.872 -0.576,-2.952 0,-2.16 0.936,-3.888 2.952,-5.256 2.016,-1.296 4.608,-2.016 7.776,-2.016 3.312,0 6.48,0.648 9.576,1.8 v 5.544 c 0,1.008 -0.504,1.944 -1.368,2.808 -1.008,1.44 -2.52,2.52 -4.464,3.384 -1.944,0.864 -4.032,1.224 -6.264,1.224 z" stroke-width="0" stroke-linejoin="miter" stroke-miterlimit="2" fill="#2f4095" stroke="#2f4095" transform="translate(0 317.728) translate(348.7361929999999 49.0352) scale(1.4) translate(-400.60531 38.232)"/>
        <path id="path313093" style="font-style:normal;font-weight:500;font-size:72px;line-height:1;font-family:'Raleway Medium Alt1';font-variant-ligatures:none;text-align:center;text-anchor:middle" d="m 456.67081,0.72 c 4.536,0 8.136,-1.008 10.872,-3.096 2.664,-2.016 4.032,-4.824 4.032,-8.352 0,-1.584 -0.36,-2.88 -0.936,-4.032 -0.576,-1.08 -1.512,-2.016 -2.736,-2.88 -1.224,-0.792 -2.736,-1.512 -4.608,-2.088 -1.872,-0.576 -4.032,-1.224 -6.48,-1.8 -1.584,-0.36 -2.952,-0.72 -4.104,-1.08 -1.152,-0.288 -2.016,-0.72 -2.736,-1.152 -0.72,-0.432 -1.296,-0.936 -1.584,-1.512 -0.288,-0.576 -0.432,-1.296 -0.432,-2.16 0,-2.16 0.792,-3.672 2.376,-4.68 1.584,-1.008 3.6,-1.512 5.904,-1.512 2.016,0 4.032,0.36 6.048,1.08 1.944,0.72 3.744,1.728 5.328,3.096 l 2.88,-3.816 c -1.728,-1.44 -3.744,-2.664 -6.192,-3.6 -2.448,-0.864 -5.112,-1.368 -7.92,-1.368 -2.016,0 -3.96,0.288 -5.688,0.792 -1.728,0.504 -3.24,1.224 -4.536,2.232 -1.296,1.008 -2.376,2.232 -3.096,3.672 -0.72,1.44 -1.08,3.096 -1.08,4.968 0,1.512 0.216,2.736 0.72,3.744 0.432,1.008 1.224,1.872 2.304,2.592 1.008,0.72 2.376,1.368 4.032,1.872 1.584,0.576 3.528,1.08 5.832,1.656 1.728,0.432 3.312,0.864 4.68,1.224 1.296,0.432 2.448,0.864 3.312,1.296 0.864,0.504 1.512,1.08 1.944,1.728 0.432,0.648 0.648,1.44 0.648,2.304 0,2.016 -0.864,3.528 -2.448,4.608 -1.584,1.08 -3.744,1.584 -6.48,1.584 -2.448,0 -4.824,-0.36 -6.984,-1.224 -2.232,-0.864 -4.464,-2.088 -6.624,-3.816 l -2.736,4.248 c 2.088,1.8 4.608,3.168 7.56,4.104 2.88,0.936 5.904,1.368 8.928,1.368 z" stroke-width="0" stroke-linejoin="miter" stroke-miterlimit="2" fill="#2f4095" stroke="#2f4095" transform="translate(0 317.728) translate(406.944693 49.0352) scale(1.4) translate(-440.18281 38.232)"/>
        <path id="path313095" style="font-style:normal;font-weight:500;font-size:72px;line-height:1;font-family:'Raleway Medium Alt1';font-variant-ligatures:none;text-align:center;text-anchor:middle" d="m 495.70494,0.72 c 1.872,0 3.672,-0.216 5.4,-0.72 1.728,-0.432 3.24,-1.08 4.68,-1.944 1.44,-0.864 2.664,-1.872 3.744,-3.024 1.08,-1.152 1.944,-2.376 2.592,-3.816 l -5.472,-1.512 c -0.432,1.008 -1.008,1.872 -1.728,2.592 -0.72,0.792 -1.584,1.44 -2.52,1.944 -1.008,0.576 -2.016,1.008 -3.096,1.296 -1.152,0.288 -2.232,0.432 -3.384,0.432 -1.656,0 -3.24,-0.288 -4.68,-0.936 -1.44,-0.576 -2.736,-1.44 -3.888,-2.592 -1.152,-1.08 -2.088,-2.376 -2.808,-3.96 -0.72,-1.512 -1.152,-3.24 -1.296,-5.112 h 31.176 c 0,-0.216 0.072,-0.576 0.072,-1.008 0,-0.432 0.072,-0.864 0.072,-1.44 0,-2.448 -0.504,-4.896 -1.368,-7.2 -0.864,-2.304 -2.16,-4.392 -3.744,-6.12 -1.656,-1.728 -3.672,-3.168 -5.976,-4.248 -2.304,-1.008 -4.896,-1.584 -7.704,-1.584 -2.88,0 -5.472,0.576 -7.776,1.584 -2.376,1.008 -4.392,2.448 -6.12,4.176 -1.728,1.8 -3.024,3.888 -3.96,6.192 -0.936,2.376 -1.368,4.896 -1.368,7.488 0,2.664 0.432,5.184 1.368,7.56 0.936,2.376 2.232,4.464 3.96,6.192 1.656,1.8 3.672,3.24 6.048,4.248 2.304,1.008 4.896,1.512 7.776,1.512 z m 12.888,-22.032 h -25.488 c 0.144,-1.728 0.504,-3.384 1.224,-4.896 0.72,-1.44 1.584,-2.736 2.736,-3.816 1.152,-1.08 2.448,-1.944 3.96,-2.52 1.44,-0.576 3.024,-0.936 4.752,-0.936 1.656,0 3.24,0.36 4.752,0.936 1.44,0.576 2.736,1.44 3.888,2.448 1.152,1.08 2.088,2.376 2.808,3.888 0.72,1.512 1.224,3.168 1.368,4.896 z" stroke-width="0" stroke-linejoin="miter" stroke-miterlimit="2" fill="#2f4095" stroke="#2f4095" transform="translate(0 317.728) translate(460.66287499999993 49.0352) scale(1.4) translate(-476.55294 38.232)"/>
        <path id="path313097" style="font-style:normal;font-weight:500;font-size:72px;line-height:1;font-family:'Raleway Medium Alt1';font-variant-ligatures:none;text-align:center;text-anchor:middle" d="m 547.27156,-42.12 -3.96,-8.712 h -6.12 l 7.128,15.264 z m 32.976,-9 -17.28,43.488 -3.168,6.48 0.504,1.152 h 5.616 l 21.384,-51.12 z m -26.496,21.6 9.288,-21.312 h -6.12 l -19.584,43.2 -17.352,-43.488 h -6.984 L 534.31156,0 h 5.616 l 10.224,-23.4 6.696,15.552 3.312,-6.408 z" stroke-width="0" stroke-linejoin="miter" stroke-miterlimit="2" fill="#25adff" stroke="#25adff" transform="translate(0 317.728) translate(514.4881429999998 30.992000000000004) scale(1.4) translate(-512.99956 51.12)"/>
        <path id="path313099" style="font-style:normal;font-weight:500;font-size:72px;line-height:1;font-family:'Raleway Medium Alt1';font-variant-ligatures:none;text-align:center;text-anchor:middle" d="m 604.68931,0.72 c 1.872,0 3.672,-0.216 5.4,-0.72 1.728,-0.432 3.24,-1.08 4.68,-1.944 1.44,-0.864 2.664,-1.872 3.744,-3.024 1.08,-1.152 1.944,-2.376 2.592,-3.816 l -5.472,-1.512 c -0.432,1.008 -1.008,1.872 -1.728,2.592 -0.72,0.792 -1.584,1.44 -2.52,1.944 -1.008,0.576 -2.016,1.008 -3.096,1.296 -1.152,0.288 -2.232,0.432 -3.384,0.432 -1.656,0 -3.24,-0.288 -4.68,-0.936 -1.44,-0.576 -2.736,-1.44 -3.888,-2.592 -1.152,-1.08 -2.088,-2.376 -2.808,-3.96 -0.72,-1.512 -1.152,-3.24 -1.296,-5.112 h 31.176 c 0,-0.216 0.072,-0.576 0.072,-1.008 0,-0.432 0.072,-0.864 0.072,-1.44 0,-2.448 -0.504,-4.896 -1.368,-7.2 -0.864,-2.304 -2.16,-4.392 -3.744,-6.12 -1.656,-1.728 -3.672,-3.168 -5.976,-4.248 -2.304,-1.008 -4.896,-1.584 -7.704,-1.584 -2.88,0 -5.472,0.576 -7.776,1.584 -2.376,1.008 -4.392,2.448 -6.12,4.176 -1.728,1.8 -3.024,3.888 -3.96,6.192 -0.936,2.376 -1.368,4.896 -1.368,7.488 0,2.664 0.432,5.184 1.368,7.56 0.936,2.376 2.232,4.464 3.96,6.192 1.656,1.8 3.672,3.24 6.048,4.248 2.304,1.008 4.896,1.512 7.776,1.512 z m 12.888,-22.032 h -25.488 c 0.144,-1.728 0.504,-3.384 1.224,-4.896 0.72,-1.44 1.584,-2.736 2.736,-3.816 1.152,-1.08 2.448,-1.944 3.96,-2.52 1.44,-0.576 3.024,-0.936 4.752,-0.936 1.656,0 3.24,0.36 4.752,0.936 1.44,0.576 2.736,1.44 3.888,2.448 1.152,1.08 2.088,2.376 2.808,3.888 0.72,1.512 1.224,3.168 1.368,4.896 z" stroke-width="0" stroke-linejoin="miter" stroke-miterlimit="2" fill="#25adff" stroke="#25adff" transform="translate(0 317.728) translate(618.8409929999999 49.0352) scale(1.4) translate(-585.53731 38.232)"/>
        <path id="path313101" style="font-style:normal;font-weight:500;font-size:72px;line-height:1;font-family:'Raleway Medium Alt1';font-variant-ligatures:none;text-align:center;text-anchor:middle" d="m 649.96269,0.72 c 2.448,0 4.824,-0.504 6.984,-1.512 2.16,-1.008 4.104,-2.448 5.688,-4.176 1.584,-1.728 2.808,-3.816 3.744,-6.192 0.864,-2.304 1.368,-4.824 1.368,-7.488 0,-2.448 -0.432,-4.896 -1.224,-7.272 -0.792,-2.376 -1.944,-4.464 -3.384,-6.264 -1.44,-1.8 -3.24,-3.24 -5.256,-4.392 -2.088,-1.08 -4.392,-1.656 -6.984,-1.656 -3.096,0 -5.76,0.792 -8.064,2.232 -2.304,1.512 -4.248,3.456 -5.832,5.904 V -52.56 h -6.336 V 0 h 5.616 v -7.056 c 1.368,2.304 3.24,4.176 5.688,5.616 2.376,1.44 5.04,2.16 7.992,2.16 z m -1.584,-5.472 c -1.152,0 -2.376,-0.216 -3.6,-0.648 -1.224,-0.432 -2.376,-1.008 -3.456,-1.728 -1.08,-0.72 -2.016,-1.656 -2.808,-2.664 -0.792,-1.008 -1.296,-2.088 -1.512,-3.312 v -10.872 c 0.576,-1.152 1.224,-2.304 2.016,-3.384 0.792,-1.008 1.728,-1.944 2.736,-2.736 1.008,-0.792 2.16,-1.44 3.384,-1.944 1.152,-0.432 2.448,-0.72 3.816,-0.72 1.8,0 3.456,0.432 4.968,1.224 1.512,0.792 2.808,1.8 3.888,3.096 1.08,1.296 1.944,2.808 2.52,4.536 0.576,1.728 0.936,3.456 0.936,5.256 0,1.872 -0.36,3.6 -0.936,5.256 -0.648,1.656 -1.512,3.096 -2.664,4.392 -1.152,1.296 -2.52,2.376 -4.104,3.096 -1.584,0.792 -3.312,1.152 -5.184,1.152 z" stroke-width="0" stroke-linejoin="miter" stroke-miterlimit="2" fill="#25adff" stroke="#25adff" transform="translate(0 317.728) translate(684.8221249999999 28.976) scale(1.4) translate(-630.66669 52.56)"/>
      </g>
      <image id="icon" style="display: none;" x="0" y="0" xlink:href=""/>
    </g>
  </g></g></svg>