<?xml version="1.0" standalone="no"?>
<!DOCTYPE svg PUBLIC "-//W3C//DTD SVG 20010904//EN"
 "http://www.w3.org/TR/2001/REC-SVG-20010904/DTD/svg10.dtd">
<svg version="1.0" xmlns="http://www.w3.org/2000/svg"
 width="500.000000pt" height="500.000000pt" viewBox="0 0 500.000000 500.000000"
 preserveAspectRatio="xMidYMid meet">

<g transform="translate(0.000000,500.000000) scale(0.100000,-0.100000)"
fill="#ffffff" stroke="none">
<path d="M2960 4560 c-14 -4 -42 -8 -63 -9 -21 -1 -68 -8 -105 -17 -37 -8 -87
-20 -112 -25 -52 -12 -146 -38 -175 -50 -11 -4 -29 -10 -40 -12 -56 -14 -175
-65 -310 -132 -156 -78 -169 -85 -222 -122 -17 -13 -36 -23 -41 -23 -6 0 -12
-3 -14 -7 -1 -5 -22 -20 -45 -35 -126 -82 -335 -270 -463 -418 -87 -100 -218
-283 -297 -415 -51 -86 -110 -187 -128 -220 -13 -22 -37 -65 -54 -95 -17 -30
-67 -129 -111 -220 -45 -91 -85 -173 -90 -182 -6 -10 -10 -22 -10 -28 0 -5
-11 -33 -24 -62 -13 -29 -31 -73 -41 -98 -10 -25 -21 -54 -26 -65 -32 -77 -97
-304 -123 -430 -31 -153 -36 -197 -36 -336 0 -172 -10 -151 159 -348 242 -280
542 -501 841 -619 14 -5 39 -15 55 -22 216 -90 578 -135 840 -106 311 34 508
89 798 221 65 29 65 29 139 -18 44 -28 174 -93 253 -127 131 -57 392 -110 543
-110 117 0 356 36 404 61 10 5 25 9 33 9 9 0 29 10 45 22 l30 22 0 1116 0
1117 -22 20 c-30 27 -208 47 -413 47 -231 -1 -419 -29 -613 -90 -86 -28 -264
-115 -292 -144 -3 -3 -21 -17 -40 -31 -19 -15 -53 -43 -75 -63 -36 -33 -44
-36 -80 -31 -22 3 -112 8 -201 11 -192 8 -311 -6 -509 -61 -86 -23 -176 -59
-289 -116 -54 -28 -100 -48 -103 -45 -5 5 7 68 27 146 5 19 16 67 25 105 9 39
20 86 25 105 5 19 16 67 25 105 9 39 20 86 25 105 11 43 38 161 50 215 11 48
38 166 50 215 5 19 16 67 26 105 9 39 23 77 30 85 17 17 42 10 192 -61 57 -27
105 -49 108 -49 2 0 41 -17 86 -39 46 -21 101 -44 123 -52 22 -7 45 -16 50
-20 17 -11 141 -21 179 -14 19 4 46 17 58 29 13 12 41 35 63 52 22 16 42 32
45 35 3 3 33 26 67 52 168 122 212 170 240 262 22 71 15 118 -45 302 -60 182
-69 213 -98 318 -9 33 -21 78 -27 99 -15 54 -94 136 -161 169 -55 27 -90 32
-136 17z m84 -160 c33 -12 86 -86 86 -118 0 -14 4 -39 10 -56 5 -17 28 -92 50
-166 23 -74 45 -144 50 -155 41 -98 54 -165 41 -211 -11 -42 -57 -94 -80 -94
-9 0 -35 17 -57 38 -23 20 -63 56 -89 80 -45 40 -47 43 -32 60 9 10 37 28 62
41 74 37 92 77 54 125 -15 19 -30 26 -54 26 -69 0 -192 -87 -221 -156 -34 -81
-8 -129 130 -244 36 -30 66 -62 66 -70 0 -23 -143 -130 -174 -130 -33 0 -145
41 -259 94 -51 24 -130 60 -177 81 -47 21 -103 46 -124 56 -91 43 -199 11
-246 -73 -20 -36 -27 -60 -66 -228 -9 -36 -19 -81 -24 -100 -5 -19 -21 -87
-35 -150 -14 -63 -37 -162 -51 -220 -31 -129 -70 -293 -90 -380 -9 -36 -19
-81 -24 -100 -5 -19 -16 -64 -25 -100 -31 -129 -34 -135 -112 -206 -127 -114
-159 -178 -113 -224 39 -39 75 -27 149 49 89 92 293 261 315 261 3 0 30 16 60
35 30 19 57 35 60 35 3 0 29 11 58 24 87 38 112 48 143 56 17 5 57 16 90 25
147 42 413 56 570 31 253 -41 397 -80 548 -150 110 -50 157 -46 173 18 14 55
-35 95 -186 151 -25 9 -61 23 -80 30 -19 7 -63 21 -97 31 -35 10 -63 23 -63
30 0 34 206 144 336 179 212 58 463 83 654 65 69 -6 133 -13 143 -16 16 -5 17
-62 17 -1012 0 -554 -4 -1013 -9 -1021 -11 -17 -61 -27 -222 -47 -113 -14
-140 -14 -260 -1 -74 9 -154 20 -179 26 -137 31 -326 115 -461 206 -99 66 -95
66 -247 -5 -59 -28 -116 -55 -127 -60 -37 -17 -269 -90 -286 -90 -10 0 -28 -4
-41 -9 -40 -15 -198 -40 -337 -52 -143 -13 -276 -5 -451 27 -92 17 -244 59
-272 74 -10 6 -23 10 -29 10 -6 0 -66 27 -133 60 -125 60 -273 154 -368 231
-82 67 -308 296 -373 378 -51 65 -59 81 -63 127 -4 51 21 275 38 344 5 19 19
73 31 120 32 131 37 146 69 235 106 288 289 672 421 882 21 34 39 65 39 68 0
4 11 21 25 39 14 18 25 36 25 40 0 4 11 22 25 40 14 18 25 36 25 40 0 11 131
188 200 271 78 92 218 231 305 302 86 71 173 133 184 133 5 0 11 4 13 8 10 24
258 158 393 212 44 17 89 36 100 40 25 11 169 53 250 73 163 41 283 55 329 37z"/>
</g>
</svg>
