<?xml version="1.0" standalone="no"?>
<!DOCTYPE svg PUBLIC "-//W3C//DTD SVG 20010904//EN"
 "http://www.w3.org/TR/2001/REC-SVG-20010904/DTD/svg10.dtd">
<svg version="1.0" xmlns="http://www.w3.org/2000/svg"
 width="1632.000000pt" height="640.000000pt" viewBox="0 0 1632.000000 640.000000"
 preserveAspectRatio="xMidYMid meet">

<g transform="translate(0.000000,640.000000) scale(0.100000,-0.100000)"
fill="#082d8a" stroke="none">
<path d="M11885 6260 c-27 -11 -68 -20 -91 -20 -74 0 -139 -27 -199 -82 -31
-28 -63 -64 -70 -79 -30 -58 -9 -139 54 -212 18 -19 43 -64 56 -98 14 -34 32
-72 40 -85 21 -32 19 -61 -4 -74 -11 -5 -57 -10 -103 -10 -77 0 -88 -3 -133
-31 -48 -31 -51 -31 -135 -25 -84 7 -86 7 -125 -23 -45 -34 -90 -40 -103 -13
-5 9 -12 37 -16 60 -4 24 -16 62 -27 83 -25 50 -28 105 -6 126 15 16 20 14 69
-20 67 -45 160 -87 196 -87 16 0 36 6 47 13 35 26 12 60 -114 161 -74 60 -128
111 -144 138 -48 81 -113 133 -227 182 -142 60 -203 70 -343 56 -134 -13 -214
-29 -412 -80 -437 -114 -867 -310 -1410 -643 -611 -374 -939 -634 -1321 -1048
-261 -283 -569 -653 -700 -842 -81 -116 -102 -137 -138 -137 -93 0 -1112 369
-2686 975 -267 102 -522 202 -567 221 -45 20 -87 33 -93 29 -13 -8 -13 -42 0
-50 24 -15 10 -73 -30 -126 -22 -30 -40 -61 -40 -71 0 -9 16 -30 37 -45 64
-49 83 -71 83 -97 0 -15 -8 -30 -20 -36 -11 -6 -20 -19 -20 -29 0 -26 187 -91
1840 -635 835 -274 1130 -371 1190 -387 19 -6 61 -20 93 -31 50 -18 57 -24 57
-48 0 -36 -63 -124 -259 -360 -127 -153 -161 -200 -159 -220 2 -18 26 -42 88
-88 47 -35 111 -83 143 -108 70 -54 110 -71 140 -57 27 13 87 102 376 556 104
162 115 177 142 177 16 0 102 -15 191 -34 857 -180 1742 -298 2448 -327 894
-37 1797 118 2372 407 110 55 369 198 477 263 91 55 100 59 179 64 103 8 161
33 217 92 46 50 62 54 143 30 45 -14 56 -23 93 -75 40 -57 75 -80 98 -65 29
17 -1 91 -51 126 -18 12 -51 39 -73 59 -39 35 -74 53 -127 64 -36 8 -58 32
-58 62 0 36 97 190 144 231 52 44 82 51 120 28 125 -73 382 -193 450 -211 76
-20 94 -18 174 23 69 35 75 37 100 22 42 -23 54 -55 47 -129 -18 -205 -18
-216 4 -265 12 -26 64 -111 116 -189 86 -127 97 -150 117 -230 21 -83 21 -90
5 -115 -33 -52 -57 -106 -57 -132 0 -14 7 -50 16 -80 23 -78 80 -130 175 -159
91 -28 271 -54 315 -46 43 9 64 43 64 107 0 77 -31 131 -128 226 l-84 82 9 93
c15 167 9 563 -10 648 -21 95 -83 222 -149 302 -60 74 -88 134 -124 260 -37
132 -53 152 -180 228 -59 36 -149 96 -198 133 -90 67 -101 72 -265 117 -24 6
-57 24 -71 39 -24 24 -28 38 -34 112 -4 46 -12 105 -18 132 -10 49 -8 80 12
157 14 54 7 117 -19 168 -23 45 -105 130 -167 172 -98 68 -303 144 -469 175
-50 9 -106 24 -125 32 -19 8 -55 21 -78 28 -24 8 -52 21 -63 31 -25 23 -25 83
1 134 26 51 25 71 -5 165 -34 102 -46 125 -94 168 -54 48 -102 72 -199 96 -98
26 -133 26 -197 1z m-1273 -241 c9 -20 38 -54 64 -75 97 -81 104 -90 104 -133
0 -54 -12 -81 -64 -145 -58 -72 -71 -112 -69 -222 2 -195 71 -251 322 -262 77
-3 155 0 205 8 74 11 85 11 116 -5 23 -12 70 -20 135 -25 59 -4 109 -12 123
-21 13 -8 43 -47 69 -87 30 -50 103 -132 219 -250 204 -205 207 -213 114 -260
-25 -12 -58 -31 -75 -41 -19 -12 -89 -29 -187 -46 -87 -14 -179 -32 -205 -40
-27 -8 -102 -26 -168 -40 -197 -40 -630 -152 -671 -173 -62 -32 -93 -72 -124
-163 -15 -46 -49 -131 -75 -188 -60 -135 -71 -180 -94 -393 -20 -178 -39 -263
-72 -330 -14 -28 -29 -40 -66 -54 -27 -9 -120 -51 -208 -93 -154 -73 -163 -75
-245 -79 -104 -4 -660 31 -922 59 -534 56 -1319 205 -1760 334 -74 21 -75 36
-10 136 27 41 93 144 147 229 162 255 294 424 544 695 140 151 439 438 607
583 250 214 561 425 909 617 670 368 1073 528 1275 505 40 -4 47 -9 62 -41z
m2025 -2074 c-6 -61 -60 -167 -100 -200 -17 -15 -57 -41 -87 -58 -49 -29 -59
-41 -95 -112 l-40 -80 -145 -72 c-211 -104 -410 -191 -615 -268 -286 -107
-742 -225 -870 -225 l-50 1 -32 67 c-18 37 -33 76 -33 86 0 29 77 193 121 257
21 31 69 84 106 116 145 127 167 166 179 327 5 78 10 99 25 106 26 14 313 33
393 26 63 -6 74 -10 130 -55 33 -26 72 -54 86 -61 39 -21 136 -16 253 13 60
15 228 54 375 87 147 33 287 67 312 74 25 8 56 15 69 15 22 1 23 -2 18 -44z"/>
<path d="M5375 3320 c-59 -5 -86 -14 -170 -57 l-100 -52 96 0 c60 -1 111 4
135 13 83 31 199 86 202 96 4 11 -11 11 -163 0z"/>
<path d="M1633 3160 c-12 -5 -71 -51 -130 -102 -59 -51 -183 -154 -275 -227
-92 -74 -165 -138 -162 -143 3 -4 105 -8 226 -8 l222 0 75 79 c42 43 90 85
106 94 25 12 94 16 380 20 426 6 439 8 589 110 83 56 136 106 136 128 0 10
-12 27 -27 36 -25 17 -69 18 -573 19 -300 1 -555 -2 -567 -6z m674 -86 c8 -22
-38 -66 -109 -103 -60 -30 -64 -31 -199 -31 -76 0 -140 4 -143 9 -11 17 4 35
71 89 l65 52 154 0 c131 0 156 -2 161 -16z"/>
<path d="M3042 3163 c-13 -2 -56 -35 -95 -71 -92 -86 -192 -173 -339 -296 -65
-54 -115 -102 -112 -107 3 -5 97 -9 209 -9 l205 0 106 93 c142 124 147 127
220 127 74 0 74 0 74 -115 0 -56 4 -86 13 -94 15 -12 434 -10 455 3 8 4 12 34
12 79 0 103 12 120 85 131 105 15 134 26 218 83 100 67 137 101 137 125 0 43
-25 45 -610 51 -305 3 -565 3 -578 0z m683 -103 c0 -18 -12 -31 -49 -55 -49
-30 -51 -30 -209 -33 -196 -5 -204 0 -129 69 l54 49 166 -2 167 -3 0 -25z"/>
<path d="M4800 3164 c-142 -13 -303 -36 -346 -49 -36 -11 -89 -47 -199 -135
-228 -184 -247 -203 -243 -236 2 -19 12 -33 28 -41 32 -15 240 -23 620 -26
258 -2 319 1 395 16 121 24 212 54 260 86 41 28 258 203 309 250 54 50 55 90
3 117 -26 14 -88 17 -406 19 -207 2 -396 1 -421 -1z m384 -60 c23 -9 20 -51
-6 -77 -46 -44 -290 -233 -331 -254 -38 -21 -55 -23 -188 -23 -197 0 -209 14
-96 116 70 65 254 203 284 215 57 22 298 38 337 23z"/>
<path d="M5015 2514 c-22 -2 -89 -9 -149 -14 -367 -36 -710 -135 -1041 -300
-198 -99 -315 -177 -447 -300 -294 -272 -393 -593 -263 -850 82 -162 313 -305
581 -359 281 -57 726 -51 1034 15 354 76 718 224 995 405 143 93 318 268 389
386 165 279 148 522 -53 723 -162 163 -329 239 -600 274 -124 16 -373 27 -446
20z m-37 -524 c141 -23 250 -89 293 -177 31 -62 32 -166 2 -233 -80 -178 -353
-351 -641 -406 -94 -18 -287 -18 -373 0 -128 27 -225 91 -265 172 -55 112 -16
259 99 374 87 87 255 186 390 230 140 45 354 62 495 40z"/>
<path d="M15285 2509 c-182 -22 -433 -101 -603 -189 -148 -78 -230 -137 -334
-242 -79 -80 -105 -113 -140 -185 l-43 -87 1 -120 c0 -104 4 -132 27 -201 32
-97 35 -166 8 -204 -51 -72 -211 -119 -355 -106 -143 12 -138 13 -159 -20 -35
-56 -207 -386 -212 -408 -9 -34 15 -56 74 -67 81 -15 396 -12 510 5 239 36
505 127 691 238 139 83 302 240 348 337 61 131 62 237 2 400 -50 136 -36 213
49 276 67 48 148 71 283 79 l116 8 25 46 c13 25 46 87 72 136 27 50 65 120 86
157 61 110 60 124 -12 139 -67 14 -344 19 -434 8z"/>
<path d="M10350 2495 c-439 -63 -786 -212 -1007 -431 -45 -45 -102 -112 -126
-150 -25 -38 -122 -224 -217 -414 -95 -189 -219 -431 -276 -537 -57 -106 -104
-204 -104 -217 0 -48 4 -49 397 -41 l368 7 35 38 c31 32 267 472 428 795 79
158 201 378 225 403 54 58 168 85 295 70 50 -6 71 -13 85 -29 38 -46 8 -120
-65 -162 -42 -24 -82 -36 -200 -58 -44 -8 -63 -17 -82 -40 -35 -42 -188 -355
-184 -376 11 -58 469 -24 705 53 255 83 505 250 611 408 119 178 124 352 12
479 -71 81 -221 159 -370 192 -103 23 -403 29 -530 10z"/>
<path d="M3220 2469 c-41 -4 -201 -5 -355 -2 -269 6 -282 5 -320 -14 -22 -12
-157 -104 -300 -205 -413 -292 -625 -441 -692 -486 -81 -55 -103 -84 -103
-136 0 -38 102 -804 116 -868 12 -59 8 -58 491 -58 411 0 443 1 451 18 7 12
-7 77 -44 217 -170 635 -184 688 -184 716 0 34 25 55 219 189 84 58 219 152
299 209 81 57 244 169 362 249 133 89 215 150 215 161 0 19 -44 22 -155 10z"/>
<path d="M943 2448 c-23 -25 -853 -1693 -853 -1714 0 -7 10 -20 22 -28 33 -24
742 -24 775 -1 12 9 88 147 173 318 84 166 171 338 195 382 23 44 134 260 246
480 112 220 221 435 243 477 33 65 38 79 27 92 -12 14 -62 16 -410 16 l-398 0
-20 -22z"/>
<path d="M6980 2463 c-34 -13 -56 -46 -147 -228 -52 -104 -99 -194 -103 -200
-4 -5 -72 -138 -152 -295 -81 -157 -230 -448 -332 -648 -102 -200 -186 -369
-186 -377 0 -7 7 -16 16 -19 9 -3 184 -6 390 -6 315 0 380 2 404 15 25 13 59
74 206 368 97 193 193 384 214 422 20 39 85 165 144 281 80 159 113 214 132
223 32 14 237 14 305 0 66 -14 99 -46 99 -94 0 -102 -108 -168 -305 -185 -95
-8 -101 -10 -126 -39 -14 -17 -70 -118 -124 -224 l-98 -193 17 -95 c24 -136
76 -401 82 -422 13 -42 40 -45 462 -48 391 -4 404 -3 418 16 9 11 12 31 9 50
-19 108 -85 595 -85 626 l0 39 162 80 c189 95 262 144 350 239 81 87 124 167
138 255 27 167 -46 292 -219 377 -90 44 -215 67 -416 79 -177 10 -1229 13
-1255 3z"/>
<path d="M11903 2463 c-15 -6 -30 -32 -367 -680 -147 -281 -278 -544 -292
-585 -34 -99 -36 -211 -4 -285 65 -151 265 -228 640 -248 334 -17 687 56 985
205 230 115 379 242 477 407 47 80 276 523 480 929 96 193 109 224 99 242 -12
22 -12 22 -399 22 -295 0 -392 -3 -405 -12 -17 -13 -78 -131 -424 -813 -124
-243 -189 -360 -215 -387 -128 -129 -358 -124 -358 8 0 36 -12 12 340 683 199
381 251 487 243 500 -9 14 -52 16 -399 18 -214 1 -395 -1 -401 -4z"/>
<path d="M15334 480 c-82 -9 -185 -51 -215 -88 -23 -29 -25 -89 -4 -118 19
-28 93 -59 213 -90 93 -24 142 -46 142 -62 0 -15 -24 -32 -46 -32 -12 0 -32 8
-45 19 -20 15 -46 19 -146 23 -86 3 -124 1 -127 -7 -9 -26 27 -74 72 -97 43
-21 62 -23 226 -26 165 -3 183 -2 233 19 65 26 93 59 93 108 0 69 -70 112
-241 151 -105 23 -143 47 -119 75 17 21 63 19 93 -5 22 -17 40 -20 136 -20
124 0 130 5 90 62 -46 64 -205 103 -355 88z"/>
<path d="M9620 470 c-273 -37 -396 -230 -241 -380 38 -37 61 -50 124 -69 70
-20 93 -22 230 -19 130 3 161 7 212 28 72 28 138 88 133 122 -3 23 -4 23 -118
19 -101 -3 -120 -6 -159 -29 -82 -48 -201 -29 -236 38 -20 39 -19 69 5 108 41
68 149 82 243 33 48 -25 67 -29 158 -32 100 -4 104 -3 107 18 7 48 -96 126
-198 151 -68 16 -187 21 -260 12z"/>
<path d="M10495 473 c-43 -6 -57 -23 -137 -153 -40 -63 -100 -160 -135 -215
l-64 -100 122 -3 c106 -2 124 0 132 14 28 50 40 54 177 54 138 0 134 1 172
-53 12 -16 28 -17 139 -15 l126 3 -89 140 c-49 77 -106 169 -127 205 -56 93
-75 111 -123 121 -44 8 -140 9 -193 2z m144 -233 c29 -66 19 -80 -56 -80 -64
0 -72 12 -52 73 30 92 71 94 108 7z"/>
<path d="M11999 459 c-17 -17 -19 -37 -19 -216 0 -109 3 -208 6 -221 l6 -22
277 2 276 3 3 40 c4 64 1 65 -133 57 -66 -4 -130 -6 -142 -4 -28 4 -41 45 -22
68 11 14 29 15 124 9 127 -8 138 -3 133 62 l-3 38 -118 -3 c-126 -4 -147 2
-147 43 0 42 21 48 164 46 l133 -2 7 47 c3 28 2 52 -5 60 -8 10 -70 12 -266
12 -235 -1 -257 -2 -274 -19z"/>
<path d="M12687 467 c-16 -11 -17 -34 -15 -237 l3 -225 127 -3 127 -3 3 103
c4 135 16 135 83 3 l50 -100 107 -3 107 -3 51 101 c75 149 100 147 100 -7 l0
-93 114 0 c95 0 115 3 120 16 3 9 6 111 6 229 0 173 -3 215 -14 225 -11 8 -54
11 -144 8 -112 -3 -133 -6 -151 -22 -12 -11 -53 -73 -92 -139 -87 -147 -90
-147 -166 -22 -76 125 -101 155 -139 171 -44 18 -253 19 -277 1z"/>
<path d="M13840 467 l-25 -13 -3 -204 c-1 -113 0 -215 3 -227 5 -22 9 -23 125
-23 l120 0 0 218 c0 264 4 256 -119 259 -45 1 -87 -3 -101 -10z"/>
<path d="M14485 471 c-11 -5 -30 -19 -41 -32 -24 -26 -284 -423 -284 -433 0
-3 59 -6 130 -6 84 0 130 4 130 10 0 6 11 22 25 35 23 24 30 25 149 25 68 0
132 -3 141 -6 8 -4 22 -19 31 -35 l15 -29 130 0 130 0 -12 23 c-34 63 -262
406 -284 427 -24 23 -35 25 -133 27 -59 2 -116 -1 -127 -6z m135 -176 c17 -21
50 -87 50 -102 0 -31 -90 -45 -125 -19 -18 13 -18 15 -1 60 27 70 52 90 76 61z"/>
<path d="M8684 460 c-11 -4 -56 -64 -99 -131 -43 -68 -102 -161 -131 -205 -88
-138 -94 -124 49 -124 121 0 124 1 137 24 18 35 30 38 168 44 l122 5 35 -37
34 -37 120 3 120 3 -101 165 c-55 91 -112 184 -125 207 -13 23 -38 54 -54 68
-29 24 -37 25 -142 24 -62 0 -121 -4 -133 -9z m173 -218 c30 -69 22 -82 -54
-82 -65 0 -71 10 -48 80 29 86 64 87 102 2z"/>
<path d="M11122 458 c-13 -13 -18 -391 -6 -435 6 -23 7 -23 208 -23 217 0 331
17 415 59 106 55 148 159 101 252 -57 110 -227 159 -555 159 -104 0 -155 -4
-163 -12z m393 -119 c113 -31 134 -148 36 -199 -22 -11 -67 -23 -100 -26 -51
-6 -61 -4 -80 15 -18 18 -21 33 -21 103 0 100 12 118 79 118 25 0 64 -5 86
-11z"/>
</g>
</svg>
